<?xml version="1.0" standalone="no"?>
<!DOCTYPE svg PUBLIC "-//W3C//DTD SVG 20010904//EN"
 "http://www.w3.org/TR/2001/REC-SVG-20010904/DTD/svg10.dtd">
<svg version="1.0" xmlns="http://www.w3.org/2000/svg"
 width="512.000000pt" height="512.000000pt" viewBox="0 0 512.000000 512.000000"
 preserveAspectRatio="xMidYMid meet">
<metadata>
Created by potrace 1.14, written by Peter Selinger 2001-2017
</metadata>
<g transform="translate(0.000000,512.000000) scale(0.100000,-0.100000)"
fill="#000000" stroke="none">
<path d="M472 4375 c-88 -27 -155 -103 -176 -197 -8 -35 -11 -174 -10 -415 1
-321 3 -364 18 -387 21 -33 74 -36 102 -5 17 19 19 39 20 223 l1 201 1135 2
1135 1 0 -1254 0 -1254 -84 -1 c-104 -1 -119 -1 -141 0 -16 1 -17 53 -17 981
l0 980 -22 22 c-22 21 -27 21 -341 22 -373 0 -371 0 -373 -82 0 -26 -1 -469
-1 -984 l-1 -938 -28 -1 c-136 -4 -159 -1 -159 21 0 31 -40 131 -71 176 -71
105 -167 172 -290 203 -248 63 -512 -88 -580 -333 l-16 -61 -39 1 c-30 1 -45
9 -71 38 -20 21 -33 47 -34 63 0 16 -2 303 -2 639 -2 587 -3 613 -21 633 -25
28 -77 28 -101 1 -18 -20 -19 -53 -19 -663 1 -641 1 -642 23 -692 12 -27 36
-65 54 -84 40 -42 121 -81 169 -81 36 0 37 -1 53 -57 27 -91 63 -153 129 -219
162 -162 413 -188 607 -63 93 60 189 194 204 286 4 27 13 44 23 47 9 2 440 4
956 3 l940 -2 12 -48 c65 -254 325 -412 579 -353 181 43 318 180 365 363 l10
41 90 0 c49 0 104 3 122 7 83 18 152 77 189 160 22 49 22 57 23 534 1 345 -2
491 -11 510 -6 14 -46 69 -90 122 -43 53 -90 112 -105 130 -30 38 -372 465
-391 489 -29 36 -181 226 -189 237 -7 9 60 12 287 11 353 -1 339 -5 336 107
-8 381 -261 732 -626 871 -152 57 -210 63 -684 64 l-434 1 -24 -22 c-12 -13
-23 -30 -23 -40 0 -31 23 -69 44 -74 12 -3 219 -6 461 -8 242 -2 454 -6 470
-11 139 -34 207 -63 310 -131 173 -115 291 -285 344 -494 30 -119 29 -121 -21
-122 -252 -3 -1641 0 -1645 5 -3 3 -6 96 -7 205 -1 178 -3 202 -19 218 -17 17
-82 18 -1205 23 l-1187 5 2 103 c2 112 12 144 56 176 28 21 33 21 1082 26 972
5 1056 6 1071 22 24 24 20 79 -7 100 -20 17 -84 18 -1068 17 -843 0 -1054 -3
-1089 -14z m2548 -1541 c0 -282 3 -521 7 -531 16 -43 1 -42 851 -43 446 0 812
-3 813 -7 3 -34 4 -120 1 -130 -3 -9 -35 -13 -114 -13 -102 0 -110 -1 -133
-25 -24 -23 -25 -28 -25 -179 0 -164 8 -201 44 -212 12 -4 67 -6 122 -5 75 1
103 -2 106 -11 2 -7 3 -76 2 -154 -2 -204 -24 -234 -176 -235 -116 -1 -113 -2
-116 25 -4 47 -44 137 -88 195 -147 195 -418 252 -628 131 -109 -62 -215 -205
-232 -312 l-7 -38 -303 0 c-236 0 -304 3 -305 13 -1 16 -1 2018 0 2035 1 9 24
12 91 10 l89 -2 1 -512z m801 488 c0 -33 0 -843 0 -889 l-1 -33 -330 0 -330 0
0 474 0 474 330 0 330 0 1 -26z m205 -184 c33 -39 77 -95 99 -123 22 -29 120
-152 218 -274 211 -263 205 -255 240 -296 15 -18 27 -35 27 -39 0 -3 -145 -5
-322 -4 l-323 3 -1 403 c-1 221 0 402 1 402 2 0 29 -32 61 -72z m-1726 13 c13
-1 15 -110 13 -923 0 -508 -1 -926 -2 -930 -1 -5 -102 -8 -226 -8 l-225 0 -1
23 c-1 21 0 1721 1 1802 l0 40 213 -2 c116 0 219 -1 227 -2z m2394 -1251 l1
-65 -68 -3 -67 -3 0 71 0 71 66 -3 67 -3 1 -65z m-3529 -355 c231 -73 311
-376 147 -557 -49 -54 -100 -85 -170 -103 -224 -59 -438 109 -431 339 3 121
57 220 154 281 95 61 191 74 300 40z m2906 -17 c31 -14 75 -45 98 -68 254
-257 -1 -676 -348 -571 -60 18 -80 31 -129 79 -83 82 -106 135 -106 247 0 71
4 100 21 137 25 54 90 128 141 160 88 54 225 61 323 16z"/>
<path d="M1010 1420 c-100 -29 -160 -104 -160 -200 0 -28 6 -65 14 -83 30 -72
122 -130 199 -126 208 12 271 295 87 389 -42 21 -105 30 -140 20z m95 -163
c31 -44 12 -93 -40 -103 -58 -11 -102 70 -57 108 35 31 73 29 97 -5z"/>
<path d="M3867 1415 c-56 -19 -84 -41 -114 -88 -49 -78 -40 -183 22 -249 128
-138 361 -44 356 145 -3 135 -140 235 -264 192z m106 -153 c38 -33 6 -112 -45
-112 -28 0 -68 38 -68 65 0 29 26 63 53 67 25 5 35 1 60 -20z"/>
<path d="M3042 4088 c-21 -23 -22 -31 -22 -221 0 -184 1 -198 20 -217 14 -14
34 -20 63 -20 23 -1 298 -1 612 -1 536 1 570 2 587 19 41 41 24 96 -61 202
-94 116 -241 210 -388 246 -15 4 -199 9 -408 11 l-380 4 -23 -23z m832 -146
c76 -28 154 -75 205 -124 23 -21 41 -40 41 -43 0 -3 -216 -5 -480 -5 l-480 0
0 101 0 101 328 -4 c308 -3 330 -5 386 -26z"/>
<path d="M710 3284 c-15 -7 -30 -19 -34 -29 -3 -9 -6 -175 -6 -369 0 -341 1
-353 20 -374 21 -22 23 -22 379 -22 336 0 360 1 382 19 l23 19 1 358 c0 351 0
359 -21 383 l-21 25 -348 0 c-239 1 -356 -3 -375 -10z m615 -133 c6 -1 10 -91
9 -253 -1 -139 -2 -256 -3 -260 0 -5 -118 -8 -261 -8 l-260 0 0 259 c0 164 4
261 10 263 8 2 472 2 505 -1z"/>
<path d="M313 3235 c-27 -22 -27 -24 -27 -150 1 -121 2 -129 23 -147 31 -24
73 -23 97 3 16 18 19 38 20 138 2 117 -10 170 -39 172 -6 0 -20 2 -30 4 -10 2
-30 -7 -44 -20z"/>
</g>
</svg>
